<mxfile host="app.diagrams.net" modified="2021-06-09T16:55:35.660Z" agent="5.0 (Windows NT 10.0; Win64; x64) AppleWebKit/537.36 (KHTML, like Gecko) Chrome/92.0.4515.40 Safari/537.36" etag="8RrGSEBx2wHDzJ6ofsJR" version="14.7.6" type="github" pages="5">
  <diagram id="us55qlVaSudVwoKLGZa-" name="DIAGRAMA DE VISÃO GERAL DE INTERAÇÃO - LOGIN">
    <mxGraphModel dx="456" dy="508" grid="1" gridSize="10" guides="1" tooltips="1" connect="1" arrows="1" fold="1" page="1" pageScale="1" pageWidth="850" pageHeight="1100" math="0" shadow="0">
      <root>
        <mxCell id="0" />
        <mxCell id="1" parent="0" />
        <mxCell id="W-lxjWOOXMm3T_u6qULj-2" value="" style="html=1;points=[];perimeter=orthogonalPerimeter;" parent="1" vertex="1">
          <mxGeometry x="363" y="340" width="10" height="160" as="geometry" />
        </mxCell>
        <mxCell id="W-lxjWOOXMm3T_u6qULj-9" value="" style="edgeStyle=orthogonalEdgeStyle;rounded=0;orthogonalLoop=1;jettySize=auto;html=1;dashed=1;align=center;" parent="1" source="W-lxjWOOXMm3T_u6qULj-4" target="W-lxjWOOXMm3T_u6qULj-5" edge="1">
          <mxGeometry relative="1" as="geometry" />
        </mxCell>
        <mxCell id="W-lxjWOOXMm3T_u6qULj-4" value="" style="html=1;points=[];perimeter=orthogonalPerimeter;align=center;" parent="1" vertex="1">
          <mxGeometry x="263" y="310" width="10" height="190" as="geometry" />
        </mxCell>
        <mxCell id="W-lxjWOOXMm3T_u6qULj-5" value="Usuário" style="shape=umlActor;verticalLabelPosition=bottom;verticalAlign=top;html=1;" parent="1" vertex="1">
          <mxGeometry x="253" y="210" width="30" height="60" as="geometry" />
        </mxCell>
        <mxCell id="W-lxjWOOXMm3T_u6qULj-8" value="" style="endArrow=none;html=1;dashed=1;" parent="1" edge="1">
          <mxGeometry width="50" height="50" relative="1" as="geometry">
            <mxPoint x="267" y="310" as="sourcePoint" />
            <mxPoint x="267" y="290" as="targetPoint" />
          </mxGeometry>
        </mxCell>
        <mxCell id="W-lxjWOOXMm3T_u6qULj-10" value="" style="html=1;points=[];perimeter=orthogonalPerimeter;" parent="1" vertex="1">
          <mxGeometry x="463" y="370" width="10" height="130" as="geometry" />
        </mxCell>
        <mxCell id="W-lxjWOOXMm3T_u6qULj-11" value="" style="html=1;points=[];perimeter=orthogonalPerimeter;" parent="1" vertex="1">
          <mxGeometry x="553" y="380" width="10" height="60" as="geometry" />
        </mxCell>
        <mxCell id="W-lxjWOOXMm3T_u6qULj-12" value="&lt;font style=&quot;font-size: 9px&quot;&gt;Faz_Login()&lt;/font&gt;" style="html=1;verticalAlign=bottom;endArrow=block;" parent="1" edge="1">
          <mxGeometry width="80" relative="1" as="geometry">
            <mxPoint x="273" y="350" as="sourcePoint" />
            <mxPoint x="361" y="350" as="targetPoint" />
          </mxGeometry>
        </mxCell>
        <mxCell id="W-lxjWOOXMm3T_u6qULj-13" value="&lt;font style=&quot;font-size: 9px&quot;&gt;Faz_Login()&lt;/font&gt;" style="html=1;verticalAlign=bottom;endArrow=block;" parent="1" edge="1">
          <mxGeometry width="80" relative="1" as="geometry">
            <mxPoint x="375" y="369.9999999999999" as="sourcePoint" />
            <mxPoint x="462.9999999999999" y="369.9999999999999" as="targetPoint" />
          </mxGeometry>
        </mxCell>
        <mxCell id="W-lxjWOOXMm3T_u6qULj-14" value="" style="html=1;points=[];perimeter=orthogonalPerimeter;align=center;" parent="1" vertex="1">
          <mxGeometry x="373" y="450" width="10" height="20" as="geometry" />
        </mxCell>
        <mxCell id="W-lxjWOOXMm3T_u6qULj-15" value="&lt;font style=&quot;font-size: 9px&quot;&gt;Login_Permitido()&lt;/font&gt;" style="html=1;verticalAlign=bottom;endArrow=open;endSize=8;" parent="1" edge="1">
          <mxGeometry relative="1" as="geometry">
            <mxPoint x="463" y="460" as="sourcePoint" />
            <mxPoint x="383" y="460" as="targetPoint" />
          </mxGeometry>
        </mxCell>
        <mxCell id="W-lxjWOOXMm3T_u6qULj-17" value="&lt;font style=&quot;font-size: 9px&quot;&gt;Faz_Login()&lt;/font&gt;" style="html=1;verticalAlign=bottom;endArrow=block;exitX=0.984;exitY=0.077;exitDx=0;exitDy=0;exitPerimeter=0;" parent="1" source="W-lxjWOOXMm3T_u6qULj-10" edge="1">
          <mxGeometry width="80" relative="1" as="geometry">
            <mxPoint x="483" y="380" as="sourcePoint" />
            <mxPoint x="552.9999999999999" y="379.9999999999999" as="targetPoint" />
          </mxGeometry>
        </mxCell>
        <mxCell id="W-lxjWOOXMm3T_u6qULj-18" value="&lt;font style=&quot;font-size: 9px&quot;&gt;Verdadeiro:int()&lt;/font&gt;" style="html=1;verticalAlign=bottom;endArrow=open;endSize=8;" parent="1" edge="1">
          <mxGeometry relative="1" as="geometry">
            <mxPoint x="553" y="440" as="sourcePoint" />
            <mxPoint x="473" y="440" as="targetPoint" />
          </mxGeometry>
        </mxCell>
        <mxCell id="W-lxjWOOXMm3T_u6qULj-20" value="" style="html=1;points=[];perimeter=orthogonalPerimeter;align=center;" parent="1" vertex="1">
          <mxGeometry x="563" y="400" width="10" height="20" as="geometry" />
        </mxCell>
        <mxCell id="W-lxjWOOXMm3T_u6qULj-21" value="Validar_Login" style="edgeStyle=orthogonalEdgeStyle;html=1;align=left;spacingLeft=2;endArrow=block;rounded=0;entryX=1;entryY=0;exitX=1;exitY=0.167;exitDx=0;exitDy=0;exitPerimeter=0;" parent="1" source="W-lxjWOOXMm3T_u6qULj-11" target="W-lxjWOOXMm3T_u6qULj-20" edge="1">
          <mxGeometry x="-0.7141" y="10" relative="1" as="geometry">
            <mxPoint x="568" y="390" as="sourcePoint" />
            <Array as="points">
              <mxPoint x="598" y="390" />
              <mxPoint x="598" y="400" />
            </Array>
            <mxPoint as="offset" />
          </mxGeometry>
        </mxCell>
        <mxCell id="W-lxjWOOXMm3T_u6qULj-23" value="" style="endArrow=none;html=1;dashed=1;strokeWidth=1;exitX=0.497;exitY=-0.017;exitDx=0;exitDy=0;exitPerimeter=0;" parent="1" source="W-lxjWOOXMm3T_u6qULj-2" edge="1">
          <mxGeometry width="50" height="50" relative="1" as="geometry">
            <mxPoint x="367.86" y="310" as="sourcePoint" />
            <mxPoint x="368" y="310" as="targetPoint" />
          </mxGeometry>
        </mxCell>
        <mxCell id="W-lxjWOOXMm3T_u6qULj-24" value="" style="endArrow=none;html=1;dashed=1;strokeWidth=1;entryX=0.516;entryY=1.021;entryDx=0;entryDy=0;entryPerimeter=0;" parent="1" target="W-lxjWOOXMm3T_u6qULj-31" edge="1">
          <mxGeometry width="50" height="50" relative="1" as="geometry">
            <mxPoint x="467.71000000000004" y="370" as="sourcePoint" />
            <mxPoint x="468" y="310" as="targetPoint" />
          </mxGeometry>
        </mxCell>
        <mxCell id="W-lxjWOOXMm3T_u6qULj-25" value="" style="endArrow=none;html=1;dashed=1;strokeWidth=1;" parent="1" edge="1">
          <mxGeometry width="50" height="50" relative="1" as="geometry">
            <mxPoint x="557.6600000000001" y="379.9999999999999" as="sourcePoint" />
            <mxPoint x="558" y="310" as="targetPoint" />
          </mxGeometry>
        </mxCell>
        <mxCell id="W-lxjWOOXMm3T_u6qULj-26" value="" style="endArrow=none;html=1;dashed=1;" parent="1" edge="1">
          <mxGeometry width="50" height="50" relative="1" as="geometry">
            <mxPoint x="267.8" y="519.9999999999999" as="sourcePoint" />
            <mxPoint x="267.8" y="499.9999999999999" as="targetPoint" />
          </mxGeometry>
        </mxCell>
        <mxCell id="W-lxjWOOXMm3T_u6qULj-27" value="" style="endArrow=none;html=1;dashed=1;" parent="1" edge="1">
          <mxGeometry width="50" height="50" relative="1" as="geometry">
            <mxPoint x="367.8" y="519.9999999999999" as="sourcePoint" />
            <mxPoint x="367.8" y="499.9999999999999" as="targetPoint" />
          </mxGeometry>
        </mxCell>
        <mxCell id="W-lxjWOOXMm3T_u6qULj-28" value="" style="endArrow=none;html=1;dashed=1;" parent="1" edge="1">
          <mxGeometry width="50" height="50" relative="1" as="geometry">
            <mxPoint x="467.79999999999995" y="519.9999999999999" as="sourcePoint" />
            <mxPoint x="467.79999999999995" y="499.9999999999999" as="targetPoint" />
          </mxGeometry>
        </mxCell>
        <mxCell id="W-lxjWOOXMm3T_u6qULj-29" value="" style="endArrow=none;html=1;dashed=1;" parent="1" edge="1">
          <mxGeometry width="50" height="50" relative="1" as="geometry">
            <mxPoint x="558" y="520" as="sourcePoint" />
            <mxPoint x="557.8" y="439.9999999999999" as="targetPoint" />
          </mxGeometry>
        </mxCell>
        <mxCell id="W-lxjWOOXMm3T_u6qULj-30" value=":view" style="shape=umlBoundary;whiteSpace=wrap;html=1;align=center;" parent="1" vertex="1">
          <mxGeometry x="340" y="270" width="50" height="40" as="geometry" />
        </mxCell>
        <mxCell id="W-lxjWOOXMm3T_u6qULj-31" value="&lt;font style=&quot;font-size: 9px&quot;&gt;:controler&lt;/font&gt;" style="ellipse;shape=umlEntity;whiteSpace=wrap;html=1;align=center;shadow=0;" parent="1" vertex="1">
          <mxGeometry x="448" y="270" width="40" height="40" as="geometry" />
        </mxCell>
        <mxCell id="W-lxjWOOXMm3T_u6qULj-34" style="edgeStyle=orthogonalEdgeStyle;rounded=0;orthogonalLoop=1;jettySize=auto;html=1;exitX=0.5;exitY=0;exitDx=0;exitDy=0;entryX=0.321;entryY=-0.014;entryDx=0;entryDy=0;entryPerimeter=0;dashed=1;strokeWidth=1;align=center;" parent="1" source="W-lxjWOOXMm3T_u6qULj-31" target="W-lxjWOOXMm3T_u6qULj-31" edge="1">
          <mxGeometry relative="1" as="geometry" />
        </mxCell>
        <mxCell id="W-lxjWOOXMm3T_u6qULj-35" value="Usuário" style="rounded=0;whiteSpace=wrap;html=1;shadow=0;align=center;fillColor=#fff2cc;strokeColor=#d6b656;" parent="1" vertex="1">
          <mxGeometry x="523" y="290" width="70" height="20" as="geometry" />
        </mxCell>
      </root>
    </mxGraphModel>
  </diagram>
  <diagram name="DIAGRAMA DE VISÃO GERAL DE INTERAÇÃO - CADASTRO" id="8BeHI7q9rLLEcBk9kuEK">
    <mxGraphModel dx="924" dy="1053" grid="1" gridSize="10" guides="1" tooltips="1" connect="1" arrows="1" fold="1" page="1" pageScale="1" pageWidth="850" pageHeight="1100" math="0" shadow="0">
      <root>
        <mxCell id="NnlbVGJ_J1JDSSD1dHhC-0" />
        <mxCell id="NnlbVGJ_J1JDSSD1dHhC-1" parent="NnlbVGJ_J1JDSSD1dHhC-0" />
        <mxCell id="NnlbVGJ_J1JDSSD1dHhC-2" value="" style="html=1;points=[];perimeter=orthogonalPerimeter;" parent="NnlbVGJ_J1JDSSD1dHhC-1" vertex="1">
          <mxGeometry x="362" y="250" width="10" height="160" as="geometry" />
        </mxCell>
        <mxCell id="NnlbVGJ_J1JDSSD1dHhC-3" value="" style="edgeStyle=orthogonalEdgeStyle;rounded=0;orthogonalLoop=1;jettySize=auto;html=1;dashed=1;align=center;" parent="NnlbVGJ_J1JDSSD1dHhC-1" source="NnlbVGJ_J1JDSSD1dHhC-4" target="NnlbVGJ_J1JDSSD1dHhC-5" edge="1">
          <mxGeometry relative="1" as="geometry" />
        </mxCell>
        <mxCell id="NnlbVGJ_J1JDSSD1dHhC-4" value="" style="html=1;points=[];perimeter=orthogonalPerimeter;align=center;" parent="NnlbVGJ_J1JDSSD1dHhC-1" vertex="1">
          <mxGeometry x="262" y="220" width="10" height="190" as="geometry" />
        </mxCell>
        <mxCell id="NnlbVGJ_J1JDSSD1dHhC-5" value="Usuário" style="shape=umlActor;verticalLabelPosition=bottom;verticalAlign=top;html=1;" parent="NnlbVGJ_J1JDSSD1dHhC-1" vertex="1">
          <mxGeometry x="252" y="120" width="30" height="60" as="geometry" />
        </mxCell>
        <mxCell id="NnlbVGJ_J1JDSSD1dHhC-6" value="" style="endArrow=none;html=1;dashed=1;" parent="NnlbVGJ_J1JDSSD1dHhC-1" edge="1">
          <mxGeometry width="50" height="50" relative="1" as="geometry">
            <mxPoint x="266" y="220" as="sourcePoint" />
            <mxPoint x="266" y="200" as="targetPoint" />
          </mxGeometry>
        </mxCell>
        <mxCell id="NnlbVGJ_J1JDSSD1dHhC-7" value="" style="html=1;points=[];perimeter=orthogonalPerimeter;" parent="NnlbVGJ_J1JDSSD1dHhC-1" vertex="1">
          <mxGeometry x="462" y="280" width="10" height="130" as="geometry" />
        </mxCell>
        <mxCell id="NnlbVGJ_J1JDSSD1dHhC-8" value="" style="html=1;points=[];perimeter=orthogonalPerimeter;" parent="NnlbVGJ_J1JDSSD1dHhC-1" vertex="1">
          <mxGeometry x="552" y="290" width="10" height="60" as="geometry" />
        </mxCell>
        <mxCell id="NnlbVGJ_J1JDSSD1dHhC-9" value="&lt;font style=&quot;font-size: 9px&quot;&gt;Faz_Cadastro()&lt;/font&gt;" style="html=1;verticalAlign=bottom;endArrow=block;" parent="NnlbVGJ_J1JDSSD1dHhC-1" edge="1">
          <mxGeometry width="80" relative="1" as="geometry">
            <mxPoint x="272" y="260" as="sourcePoint" />
            <mxPoint x="360" y="260" as="targetPoint" />
          </mxGeometry>
        </mxCell>
        <mxCell id="NnlbVGJ_J1JDSSD1dHhC-10" value="&lt;font style=&quot;font-size: 9px&quot;&gt;Faz_Cadastro()&lt;/font&gt;" style="html=1;verticalAlign=bottom;endArrow=block;" parent="NnlbVGJ_J1JDSSD1dHhC-1" edge="1">
          <mxGeometry width="80" relative="1" as="geometry">
            <mxPoint x="374" y="279.9999999999999" as="sourcePoint" />
            <mxPoint x="461.9999999999999" y="279.9999999999999" as="targetPoint" />
          </mxGeometry>
        </mxCell>
        <mxCell id="NnlbVGJ_J1JDSSD1dHhC-11" value="" style="html=1;points=[];perimeter=orthogonalPerimeter;align=center;" parent="NnlbVGJ_J1JDSSD1dHhC-1" vertex="1">
          <mxGeometry x="372" y="360" width="10" height="20" as="geometry" />
        </mxCell>
        <mxCell id="NnlbVGJ_J1JDSSD1dHhC-12" value="&lt;font style=&quot;font-size: 7px&quot;&gt;Cadastro_Permitido()&lt;/font&gt;" style="html=1;verticalAlign=bottom;endArrow=open;endSize=8;" parent="NnlbVGJ_J1JDSSD1dHhC-1" edge="1">
          <mxGeometry relative="1" as="geometry">
            <mxPoint x="462" y="370" as="sourcePoint" />
            <mxPoint x="382" y="370" as="targetPoint" />
          </mxGeometry>
        </mxCell>
        <mxCell id="NnlbVGJ_J1JDSSD1dHhC-13" value="&lt;font style=&quot;font-size: 9px&quot;&gt;Faz_Cadastro()&lt;/font&gt;" style="html=1;verticalAlign=bottom;endArrow=block;exitX=0.984;exitY=0.077;exitDx=0;exitDy=0;exitPerimeter=0;" parent="NnlbVGJ_J1JDSSD1dHhC-1" source="NnlbVGJ_J1JDSSD1dHhC-7" edge="1">
          <mxGeometry width="80" relative="1" as="geometry">
            <mxPoint x="482" y="290" as="sourcePoint" />
            <mxPoint x="551.9999999999999" y="289.9999999999999" as="targetPoint" />
          </mxGeometry>
        </mxCell>
        <mxCell id="NnlbVGJ_J1JDSSD1dHhC-14" value="&lt;font style=&quot;font-size: 9px&quot;&gt;Verdadeiro:int()&lt;/font&gt;" style="html=1;verticalAlign=bottom;endArrow=open;endSize=8;" parent="NnlbVGJ_J1JDSSD1dHhC-1" edge="1">
          <mxGeometry relative="1" as="geometry">
            <mxPoint x="552" y="350" as="sourcePoint" />
            <mxPoint x="472" y="350" as="targetPoint" />
          </mxGeometry>
        </mxCell>
        <mxCell id="NnlbVGJ_J1JDSSD1dHhC-15" value="" style="html=1;points=[];perimeter=orthogonalPerimeter;align=center;" parent="NnlbVGJ_J1JDSSD1dHhC-1" vertex="1">
          <mxGeometry x="562" y="310" width="10" height="20" as="geometry" />
        </mxCell>
        <mxCell id="NnlbVGJ_J1JDSSD1dHhC-16" value="Validar_Cadastro" style="edgeStyle=orthogonalEdgeStyle;html=1;align=left;spacingLeft=2;endArrow=block;rounded=0;entryX=1;entryY=0;exitX=1;exitY=0.167;exitDx=0;exitDy=0;exitPerimeter=0;" parent="NnlbVGJ_J1JDSSD1dHhC-1" source="NnlbVGJ_J1JDSSD1dHhC-8" target="NnlbVGJ_J1JDSSD1dHhC-15" edge="1">
          <mxGeometry x="-0.7141" y="10" relative="1" as="geometry">
            <mxPoint x="567" y="300" as="sourcePoint" />
            <Array as="points">
              <mxPoint x="597" y="300" />
              <mxPoint x="597" y="310" />
            </Array>
            <mxPoint as="offset" />
          </mxGeometry>
        </mxCell>
        <mxCell id="NnlbVGJ_J1JDSSD1dHhC-17" value="" style="endArrow=none;html=1;dashed=1;strokeWidth=1;exitX=0.497;exitY=-0.017;exitDx=0;exitDy=0;exitPerimeter=0;" parent="NnlbVGJ_J1JDSSD1dHhC-1" source="NnlbVGJ_J1JDSSD1dHhC-2" edge="1">
          <mxGeometry width="50" height="50" relative="1" as="geometry">
            <mxPoint x="366.86" y="220" as="sourcePoint" />
            <mxPoint x="367" y="220" as="targetPoint" />
          </mxGeometry>
        </mxCell>
        <mxCell id="NnlbVGJ_J1JDSSD1dHhC-18" value="" style="endArrow=none;html=1;dashed=1;strokeWidth=1;entryX=0.516;entryY=1.021;entryDx=0;entryDy=0;entryPerimeter=0;" parent="NnlbVGJ_J1JDSSD1dHhC-1" target="NnlbVGJ_J1JDSSD1dHhC-25" edge="1">
          <mxGeometry width="50" height="50" relative="1" as="geometry">
            <mxPoint x="466.71000000000004" y="280" as="sourcePoint" />
            <mxPoint x="467" y="220" as="targetPoint" />
          </mxGeometry>
        </mxCell>
        <mxCell id="NnlbVGJ_J1JDSSD1dHhC-19" value="" style="endArrow=none;html=1;dashed=1;strokeWidth=1;" parent="NnlbVGJ_J1JDSSD1dHhC-1" edge="1">
          <mxGeometry width="50" height="50" relative="1" as="geometry">
            <mxPoint x="556.6600000000001" y="289.9999999999999" as="sourcePoint" />
            <mxPoint x="557" y="220" as="targetPoint" />
          </mxGeometry>
        </mxCell>
        <mxCell id="NnlbVGJ_J1JDSSD1dHhC-20" value="" style="endArrow=none;html=1;dashed=1;" parent="NnlbVGJ_J1JDSSD1dHhC-1" edge="1">
          <mxGeometry width="50" height="50" relative="1" as="geometry">
            <mxPoint x="266.8" y="429.9999999999999" as="sourcePoint" />
            <mxPoint x="266.8" y="409.9999999999999" as="targetPoint" />
          </mxGeometry>
        </mxCell>
        <mxCell id="NnlbVGJ_J1JDSSD1dHhC-21" value="" style="endArrow=none;html=1;dashed=1;" parent="NnlbVGJ_J1JDSSD1dHhC-1" edge="1">
          <mxGeometry width="50" height="50" relative="1" as="geometry">
            <mxPoint x="366.8" y="429.9999999999999" as="sourcePoint" />
            <mxPoint x="366.8" y="409.9999999999999" as="targetPoint" />
          </mxGeometry>
        </mxCell>
        <mxCell id="NnlbVGJ_J1JDSSD1dHhC-22" value="" style="endArrow=none;html=1;dashed=1;" parent="NnlbVGJ_J1JDSSD1dHhC-1" edge="1">
          <mxGeometry width="50" height="50" relative="1" as="geometry">
            <mxPoint x="466.79999999999995" y="429.9999999999999" as="sourcePoint" />
            <mxPoint x="466.79999999999995" y="409.9999999999999" as="targetPoint" />
          </mxGeometry>
        </mxCell>
        <mxCell id="NnlbVGJ_J1JDSSD1dHhC-23" value="" style="endArrow=none;html=1;dashed=1;" parent="NnlbVGJ_J1JDSSD1dHhC-1" edge="1">
          <mxGeometry width="50" height="50" relative="1" as="geometry">
            <mxPoint x="557" y="430" as="sourcePoint" />
            <mxPoint x="556.8" y="349.9999999999999" as="targetPoint" />
          </mxGeometry>
        </mxCell>
        <mxCell id="NnlbVGJ_J1JDSSD1dHhC-24" value=":view" style="shape=umlBoundary;whiteSpace=wrap;html=1;align=center;" parent="NnlbVGJ_J1JDSSD1dHhC-1" vertex="1">
          <mxGeometry x="339" y="180" width="50" height="40" as="geometry" />
        </mxCell>
        <mxCell id="NnlbVGJ_J1JDSSD1dHhC-25" value="&lt;font style=&quot;font-size: 9px&quot;&gt;:controler&lt;/font&gt;" style="ellipse;shape=umlEntity;whiteSpace=wrap;html=1;align=center;shadow=0;" parent="NnlbVGJ_J1JDSSD1dHhC-1" vertex="1">
          <mxGeometry x="447" y="180" width="40" height="40" as="geometry" />
        </mxCell>
        <mxCell id="NnlbVGJ_J1JDSSD1dHhC-27" style="edgeStyle=orthogonalEdgeStyle;rounded=0;orthogonalLoop=1;jettySize=auto;html=1;exitX=0.5;exitY=0;exitDx=0;exitDy=0;entryX=0.321;entryY=-0.014;entryDx=0;entryDy=0;entryPerimeter=0;dashed=1;strokeWidth=1;align=center;" parent="NnlbVGJ_J1JDSSD1dHhC-1" source="NnlbVGJ_J1JDSSD1dHhC-25" target="NnlbVGJ_J1JDSSD1dHhC-25" edge="1">
          <mxGeometry relative="1" as="geometry" />
        </mxCell>
        <mxCell id="NnlbVGJ_J1JDSSD1dHhC-28" value="Usuário" style="rounded=0;whiteSpace=wrap;html=1;shadow=0;align=center;fillColor=#fff2cc;strokeColor=#d6b656;" parent="NnlbVGJ_J1JDSSD1dHhC-1" vertex="1">
          <mxGeometry x="522" y="200" width="70" height="20" as="geometry" />
        </mxCell>
      </root>
    </mxGraphModel>
  </diagram>
  <diagram id="1cEyCG0iJBkUuyff_e0e" name="Estrutural - Diagrama de Classes">
    <mxGraphModel dx="661" dy="737" grid="1" gridSize="10" guides="1" tooltips="1" connect="1" arrows="1" fold="1" page="1" pageScale="1" pageWidth="850" pageHeight="1100" math="0" shadow="0">
      <root>
        <mxCell id="BkrqhhU8qfT0sWAhKPgi-0" />
        <mxCell id="BkrqhhU8qfT0sWAhKPgi-1" parent="BkrqhhU8qfT0sWAhKPgi-0" />
        <mxCell id="Q9CjJ1bVQpFhLxQlv-rE-2" value="Pessoa" style="swimlane;fontStyle=0;childLayout=stackLayout;horizontal=1;startSize=26;fillColor=none;horizontalStack=0;resizeParent=1;resizeParentMax=0;resizeLast=0;collapsible=1;marginBottom=0;shadow=0;align=center;" parent="BkrqhhU8qfT0sWAhKPgi-1" vertex="1">
          <mxGeometry x="130" y="220" width="180" height="130" as="geometry" />
        </mxCell>
        <mxCell id="Q9CjJ1bVQpFhLxQlv-rE-3" value="#NomePess : char = 50" style="text;strokeColor=none;fillColor=none;align=left;verticalAlign=top;spacingLeft=4;spacingRight=4;overflow=hidden;rotatable=0;points=[[0,0.5],[1,0.5]];portConstraint=eastwest;" parent="Q9CjJ1bVQpFhLxQlv-rE-2" vertex="1">
          <mxGeometry y="26" width="180" height="26" as="geometry" />
        </mxCell>
        <mxCell id="Q9CjJ1bVQpFhLxQlv-rE-4" value="#TelefPess : char = 50" style="text;strokeColor=none;fillColor=none;align=left;verticalAlign=top;spacingLeft=4;spacingRight=4;overflow=hidden;rotatable=0;points=[[0,0.5],[1,0.5]];portConstraint=eastwest;" parent="Q9CjJ1bVQpFhLxQlv-rE-2" vertex="1">
          <mxGeometry y="52" width="180" height="26" as="geometry" />
        </mxCell>
        <mxCell id="Q9CjJ1bVQpFhLxQlv-rE-5" value="#EmailPess : char = 50" style="text;strokeColor=none;fillColor=none;align=left;verticalAlign=top;spacingLeft=4;spacingRight=4;overflow=hidden;rotatable=0;points=[[0,0.5],[1,0.5]];portConstraint=eastwest;" parent="Q9CjJ1bVQpFhLxQlv-rE-2" vertex="1">
          <mxGeometry y="78" width="180" height="26" as="geometry" />
        </mxCell>
        <mxCell id="Q9CjJ1bVQpFhLxQlv-rE-6" value="#EnderePess : char = 50&#xa;" style="text;strokeColor=none;fillColor=none;align=left;verticalAlign=top;spacingLeft=4;spacingRight=4;overflow=hidden;rotatable=0;points=[[0,0.5],[1,0.5]];portConstraint=eastwest;" parent="Q9CjJ1bVQpFhLxQlv-rE-2" vertex="1">
          <mxGeometry y="104" width="180" height="26" as="geometry" />
        </mxCell>
        <mxCell id="Q9CjJ1bVQpFhLxQlv-rE-7" value="" style="html=1;points=[];perimeter=orthogonalPerimeter;shadow=0;align=center;" parent="BkrqhhU8qfT0sWAhKPgi-1" vertex="1">
          <mxGeometry x="130" y="350" width="180" height="10" as="geometry" />
        </mxCell>
        <mxCell id="poxx4xuQKqnGYYkCbimn-4" style="edgeStyle=orthogonalEdgeStyle;rounded=0;orthogonalLoop=1;jettySize=auto;html=1;strokeWidth=2;align=center;endArrow=block;endFill=0;" parent="BkrqhhU8qfT0sWAhKPgi-1" source="Q9CjJ1bVQpFhLxQlv-rE-10" edge="1">
          <mxGeometry relative="1" as="geometry">
            <mxPoint x="160" y="360" as="targetPoint" />
            <Array as="points">
              <mxPoint x="160" y="410" />
              <mxPoint x="160" y="410" />
            </Array>
          </mxGeometry>
        </mxCell>
        <mxCell id="Q9CjJ1bVQpFhLxQlv-rE-10" value="Fisica" style="swimlane;fontStyle=1;align=center;verticalAlign=top;childLayout=stackLayout;horizontal=1;startSize=26;horizontalStack=0;resizeParent=1;resizeParentMax=0;resizeLast=0;collapsible=1;marginBottom=0;shadow=0;" parent="BkrqhhU8qfT0sWAhKPgi-1" vertex="1">
          <mxGeometry x="40" y="430" width="160" height="120" as="geometry" />
        </mxCell>
        <mxCell id="Q9CjJ1bVQpFhLxQlv-rE-11" value="- CPFis : long" style="text;strokeColor=none;fillColor=none;align=left;verticalAlign=top;spacingLeft=4;spacingRight=4;overflow=hidden;rotatable=0;points=[[0,0.5],[1,0.5]];portConstraint=eastwest;" parent="Q9CjJ1bVQpFhLxQlv-rE-10" vertex="1">
          <mxGeometry y="26" width="160" height="26" as="geometry" />
        </mxCell>
        <mxCell id="Q9CjJ1bVQpFhLxQlv-rE-12" value="" style="line;strokeWidth=1;fillColor=none;align=left;verticalAlign=middle;spacingTop=-1;spacingLeft=3;spacingRight=3;rotatable=0;labelPosition=right;points=[];portConstraint=eastwest;" parent="Q9CjJ1bVQpFhLxQlv-rE-10" vertex="1">
          <mxGeometry y="52" width="160" height="8" as="geometry" />
        </mxCell>
        <mxCell id="Q9CjJ1bVQpFhLxQlv-rE-13" value="+ Gravar():void&#xa;+ValCPF(CPFis:long):int&#xa;+ConCPF(CPFis:long):int" style="text;strokeColor=none;fillColor=none;align=left;verticalAlign=top;spacingLeft=4;spacingRight=4;overflow=hidden;rotatable=0;points=[[0,0.5],[1,0.5]];portConstraint=eastwest;" parent="Q9CjJ1bVQpFhLxQlv-rE-10" vertex="1">
          <mxGeometry y="60" width="160" height="60" as="geometry" />
        </mxCell>
        <mxCell id="poxx4xuQKqnGYYkCbimn-5" style="edgeStyle=orthogonalEdgeStyle;rounded=0;orthogonalLoop=1;jettySize=auto;html=1;entryX=0.81;entryY=1.18;entryDx=0;entryDy=0;entryPerimeter=0;strokeWidth=2;align=center;endArrow=block;endFill=0;" parent="BkrqhhU8qfT0sWAhKPgi-1" source="Q9CjJ1bVQpFhLxQlv-rE-14" target="Q9CjJ1bVQpFhLxQlv-rE-7" edge="1">
          <mxGeometry relative="1" as="geometry">
            <Array as="points">
              <mxPoint x="276" y="410" />
              <mxPoint x="276" y="410" />
            </Array>
          </mxGeometry>
        </mxCell>
        <mxCell id="Q9CjJ1bVQpFhLxQlv-rE-14" value="Juritica" style="swimlane;fontStyle=1;align=center;verticalAlign=top;childLayout=stackLayout;horizontal=1;startSize=26;horizontalStack=0;resizeParent=1;resizeParentMax=0;resizeLast=0;collapsible=1;marginBottom=0;shadow=0;" parent="BkrqhhU8qfT0sWAhKPgi-1" vertex="1">
          <mxGeometry x="240" y="430" width="160" height="120" as="geometry" />
        </mxCell>
        <mxCell id="Q9CjJ1bVQpFhLxQlv-rE-15" value="- CNPJur:log" style="text;strokeColor=none;fillColor=none;align=left;verticalAlign=top;spacingLeft=4;spacingRight=4;overflow=hidden;rotatable=0;points=[[0,0.5],[1,0.5]];portConstraint=eastwest;" parent="Q9CjJ1bVQpFhLxQlv-rE-14" vertex="1">
          <mxGeometry y="26" width="160" height="26" as="geometry" />
        </mxCell>
        <mxCell id="Q9CjJ1bVQpFhLxQlv-rE-16" value="" style="line;strokeWidth=1;fillColor=none;align=left;verticalAlign=middle;spacingTop=-1;spacingLeft=3;spacingRight=3;rotatable=0;labelPosition=right;points=[];portConstraint=eastwest;" parent="Q9CjJ1bVQpFhLxQlv-rE-14" vertex="1">
          <mxGeometry y="52" width="160" height="8" as="geometry" />
        </mxCell>
        <mxCell id="Q9CjJ1bVQpFhLxQlv-rE-17" value="+Gravar():void&#xa;+ValCNPJ(CNPJur:long):int&#xa;+ConCNPJ(CNPJur:long):int" style="text;strokeColor=none;fillColor=none;align=left;verticalAlign=top;spacingLeft=4;spacingRight=4;overflow=hidden;rotatable=0;points=[[0,0.5],[1,0.5]];portConstraint=eastwest;" parent="Q9CjJ1bVQpFhLxQlv-rE-14" vertex="1">
          <mxGeometry y="60" width="160" height="60" as="geometry" />
        </mxCell>
        <mxCell id="poxx4xuQKqnGYYkCbimn-6" value="- Possui" style="edgeStyle=orthogonalEdgeStyle;rounded=0;orthogonalLoop=1;jettySize=auto;html=1;endArrow=diamond;endFill=1;strokeWidth=2;align=center;entryX=1.015;entryY=0.09;entryDx=0;entryDy=0;entryPerimeter=0;" parent="BkrqhhU8qfT0sWAhKPgi-1" source="poxx4xuQKqnGYYkCbimn-1" target="Q9CjJ1bVQpFhLxQlv-rE-5" edge="1">
          <mxGeometry x="0.0437" y="16" relative="1" as="geometry">
            <mxPoint x="439" y="300" as="sourcePoint" />
            <mxPoint x="330" y="300" as="targetPoint" />
            <Array as="points">
              <mxPoint x="330" y="300" />
            </Array>
            <mxPoint as="offset" />
          </mxGeometry>
        </mxCell>
        <mxCell id="poxx4xuQKqnGYYkCbimn-0" value="Conta" style="swimlane;fontStyle=1;align=center;verticalAlign=top;childLayout=stackLayout;horizontal=1;startSize=26;horizontalStack=0;resizeParent=1;resizeParentMax=0;resizeLast=0;collapsible=1;marginBottom=0;shadow=0;" parent="BkrqhhU8qfT0sWAhKPgi-1" vertex="1">
          <mxGeometry x="440" y="220" width="240" height="300" as="geometry" />
        </mxCell>
        <mxCell id="poxx4xuQKqnGYYkCbimn-1" value="#IdPerfil:long&#xa;#UserName:char&#xa;#DtAber:Date&#xa;#Senha:Int&#xa;#NomeServ:char&#xa;#IdProd:int&#xa;#DescrServ:char&#xa;#PrecServ:double" style="text;strokeColor=none;fillColor=none;align=left;verticalAlign=top;spacingLeft=4;spacingRight=4;overflow=hidden;rotatable=0;points=[[0,0.5],[1,0.5]];portConstraint=eastwest;" parent="poxx4xuQKqnGYYkCbimn-0" vertex="1">
          <mxGeometry y="26" width="240" height="134" as="geometry" />
        </mxCell>
        <mxCell id="poxx4xuQKqnGYYkCbimn-2" value="" style="line;strokeWidth=1;fillColor=none;align=left;verticalAlign=middle;spacingTop=-1;spacingLeft=3;spacingRight=3;rotatable=0;labelPosition=right;points=[];portConstraint=eastwest;" parent="poxx4xuQKqnGYYkCbimn-0" vertex="1">
          <mxGeometry y="160" width="240" height="8" as="geometry" />
        </mxCell>
        <mxCell id="poxx4xuQKqnGYYkCbimn-3" value="+Abertura(UserName:char, DtAber:Date,&#xa;Senha:Int, NomeServ:char,IdProd:int,&#xa; DescrServ:char, PrecServ:double):long&#xa;+Encerramento():void&#xa;+Adicionar(IdPerfil:long, IdProd:int, &#xa;DescrServ:char, PrecServ:double):char&#xa;+Consulta(IdPerfil:long)int&#xa;+ValSenha(Senha:int):int" style="text;strokeColor=none;fillColor=none;align=left;verticalAlign=top;spacingLeft=4;spacingRight=4;overflow=hidden;rotatable=0;points=[[0,0.5],[1,0.5]];portConstraint=eastwest;" parent="poxx4xuQKqnGYYkCbimn-0" vertex="1">
          <mxGeometry y="168" width="240" height="132" as="geometry" />
        </mxCell>
        <mxCell id="poxx4xuQKqnGYYkCbimn-7" value="Diagrama de Classes" style="text;whiteSpace=wrap;html=1;fontSize=18;align=center;verticalAlign=middle;" parent="BkrqhhU8qfT0sWAhKPgi-1" vertex="1">
          <mxGeometry x="120" y="50" width="230" height="40" as="geometry" />
        </mxCell>
        <mxCell id="poxx4xuQKqnGYYkCbimn-8" value="Histórico" style="swimlane;fontStyle=1;align=center;verticalAlign=middle;childLayout=stackLayout;horizontal=1;startSize=26;horizontalStack=0;resizeParent=1;resizeParentMax=0;resizeLast=0;collapsible=1;marginBottom=0;shadow=0;fontSize=13;" parent="BkrqhhU8qfT0sWAhKPgi-1" vertex="1">
          <mxGeometry x="760" y="220" width="300" height="140" as="geometry" />
        </mxCell>
        <mxCell id="poxx4xuQKqnGYYkCbimn-9" value="- IdPerfil:long&#xa;- IdProd:int&#xa;- DtaHis:Date&#xa;" style="text;strokeColor=none;fillColor=none;align=left;verticalAlign=top;spacingLeft=4;spacingRight=4;overflow=hidden;rotatable=0;points=[[0,0.5],[1,0.5]];portConstraint=eastwest;" parent="poxx4xuQKqnGYYkCbimn-8" vertex="1">
          <mxGeometry y="26" width="300" height="62" as="geometry" />
        </mxCell>
        <mxCell id="poxx4xuQKqnGYYkCbimn-10" value="" style="line;strokeWidth=1;fillColor=none;align=left;verticalAlign=middle;spacingTop=-1;spacingLeft=3;spacingRight=3;rotatable=0;labelPosition=right;points=[];portConstraint=eastwest;" parent="poxx4xuQKqnGYYkCbimn-8" vertex="1">
          <mxGeometry y="88" width="300" height="2" as="geometry" />
        </mxCell>
        <mxCell id="poxx4xuQKqnGYYkCbimn-11" value="+ Gravar(IdPerfil:long, IdProd:int, DtaHis:Date):int&#xa;+ Mostrar(IdPerfil:long, IdProd:int):int" style="text;strokeColor=none;fillColor=none;align=left;verticalAlign=top;spacingLeft=4;spacingRight=4;overflow=hidden;rotatable=0;points=[[0,0.5],[1,0.5]];portConstraint=eastwest;" parent="poxx4xuQKqnGYYkCbimn-8" vertex="1">
          <mxGeometry y="90" width="300" height="50" as="geometry" />
        </mxCell>
        <mxCell id="u8kFrUlLAGp5yrieX9Em-0" value="1..*" style="text;html=1;align=center;verticalAlign=middle;resizable=0;points=[];autosize=1;strokeColor=none;fontSize=13;" vertex="1" parent="BkrqhhU8qfT0sWAhKPgi-1">
          <mxGeometry x="400" y="270" width="40" height="20" as="geometry" />
        </mxCell>
        <mxCell id="u8kFrUlLAGp5yrieX9Em-1" style="edgeStyle=orthogonalEdgeStyle;rounded=0;orthogonalLoop=1;jettySize=auto;html=1;fontSize=13;endArrow=none;endFill=0;entryX=-0.002;entryY=0.202;entryDx=0;entryDy=0;entryPerimeter=0;" edge="1" parent="BkrqhhU8qfT0sWAhKPgi-1" source="poxx4xuQKqnGYYkCbimn-1" target="poxx4xuQKqnGYYkCbimn-11">
          <mxGeometry relative="1" as="geometry">
            <mxPoint x="720" y="313" as="targetPoint" />
            <Array as="points">
              <mxPoint x="700" y="320" />
              <mxPoint x="700" y="320" />
            </Array>
          </mxGeometry>
        </mxCell>
        <mxCell id="u8kFrUlLAGp5yrieX9Em-2" value="- Registra" style="edgeLabel;html=1;align=center;verticalAlign=middle;resizable=0;points=[];fontSize=9;" vertex="1" connectable="0" parent="u8kFrUlLAGp5yrieX9Em-1">
          <mxGeometry x="0.1563" relative="1" as="geometry">
            <mxPoint x="-6" y="10" as="offset" />
          </mxGeometry>
        </mxCell>
        <mxCell id="u8kFrUlLAGp5yrieX9Em-3" value="1..*" style="text;html=1;align=center;verticalAlign=middle;resizable=0;points=[];autosize=1;strokeColor=none;fontSize=9;" vertex="1" parent="BkrqhhU8qfT0sWAhKPgi-1">
          <mxGeometry x="730" y="300" width="30" height="20" as="geometry" />
        </mxCell>
      </root>
    </mxGraphModel>
  </diagram>
  <diagram id="HyOX_VeWChH-36MOWnaa" name="Diagrama de Componentes">
    <mxGraphModel dx="1294" dy="1474" grid="1" gridSize="10" guides="1" tooltips="1" connect="1" arrows="1" fold="1" page="1" pageScale="1" pageWidth="1100" pageHeight="850" math="0" shadow="0">
      <root>
        <mxCell id="ipPPC84IU5ozWKEs6-VU-0" />
        <mxCell id="ipPPC84IU5ozWKEs6-VU-1" parent="ipPPC84IU5ozWKEs6-VU-0" />
        <mxCell id="ipPPC84IU5ozWKEs6-VU-2" value="Empresas" style="html=1;dropTarget=0;fontSize=16;verticalAlign=middle;fontStyle=0" vertex="1" parent="ipPPC84IU5ozWKEs6-VU-1">
          <mxGeometry x="140" y="400" width="200" height="80" as="geometry" />
        </mxCell>
        <mxCell id="ipPPC84IU5ozWKEs6-VU-3" value="" style="shape=module;jettyWidth=8;jettyHeight=4;" vertex="1" parent="ipPPC84IU5ozWKEs6-VU-2">
          <mxGeometry x="1" width="20" height="20" relative="1" as="geometry">
            <mxPoint x="-27" y="7" as="offset" />
          </mxGeometry>
        </mxCell>
        <mxCell id="ipPPC84IU5ozWKEs6-VU-6" value="(Aplicação)&lt;br&gt;Research App" style="html=1;dropTarget=0;fontSize=16;verticalAlign=middle;fontStyle=0" vertex="1" parent="ipPPC84IU5ozWKEs6-VU-1">
          <mxGeometry x="460" y="400" width="200" height="80" as="geometry" />
        </mxCell>
        <mxCell id="ipPPC84IU5ozWKEs6-VU-7" value="" style="shape=module;jettyWidth=8;jettyHeight=4;" vertex="1" parent="ipPPC84IU5ozWKEs6-VU-6">
          <mxGeometry x="1" width="20" height="20" relative="1" as="geometry">
            <mxPoint x="-27" y="7" as="offset" />
          </mxGeometry>
        </mxCell>
        <mxCell id="ipPPC84IU5ozWKEs6-VU-8" value="Clientes&lt;br&gt;(Web / Mobile)" style="html=1;dropTarget=0;fontSize=16;verticalAlign=middle;fontStyle=0" vertex="1" parent="ipPPC84IU5ozWKEs6-VU-1">
          <mxGeometry x="780" y="400" width="200" height="80" as="geometry" />
        </mxCell>
        <mxCell id="ipPPC84IU5ozWKEs6-VU-9" value="" style="shape=module;jettyWidth=8;jettyHeight=4;" vertex="1" parent="ipPPC84IU5ozWKEs6-VU-8">
          <mxGeometry x="1" width="20" height="20" relative="1" as="geometry">
            <mxPoint x="-27" y="7" as="offset" />
          </mxGeometry>
        </mxCell>
        <mxCell id="ipPPC84IU5ozWKEs6-VU-10" value="" style="rounded=0;orthogonalLoop=1;jettySize=auto;html=1;endArrow=none;endFill=0;fontSize=16;exitX=1;exitY=0.75;exitDx=0;exitDy=0;" edge="1" target="ipPPC84IU5ozWKEs6-VU-12" parent="ipPPC84IU5ozWKEs6-VU-1" source="ipPPC84IU5ozWKEs6-VU-13">
          <mxGeometry relative="1" as="geometry">
            <mxPoint x="350" y="465" as="sourcePoint" />
            <Array as="points">
              <mxPoint x="350" y="465" />
            </Array>
          </mxGeometry>
        </mxCell>
        <mxCell id="ipPPC84IU5ozWKEs6-VU-11" value="" style="rounded=0;orthogonalLoop=1;jettySize=auto;html=1;endArrow=halfCircle;endFill=0;entryX=0.5;entryY=0.5;entryDx=0;entryDy=0;endSize=6;strokeWidth=1;fontSize=16;exitX=0;exitY=1;exitDx=0;exitDy=0;" edge="1" target="ipPPC84IU5ozWKEs6-VU-12" parent="ipPPC84IU5ozWKEs6-VU-1" source="ipPPC84IU5ozWKEs6-VU-23">
          <mxGeometry relative="1" as="geometry">
            <mxPoint x="459" y="450" as="sourcePoint" />
            <Array as="points">
              <mxPoint x="449" y="465" />
              <mxPoint x="430" y="465" />
            </Array>
          </mxGeometry>
        </mxCell>
        <mxCell id="ipPPC84IU5ozWKEs6-VU-12" value="" style="ellipse;whiteSpace=wrap;html=1;fontFamily=Helvetica;fontSize=12;fontColor=#000000;align=center;strokeColor=#000000;fillColor=#ffffff;points=[];aspect=fixed;resizable=0;" vertex="1" parent="ipPPC84IU5ozWKEs6-VU-1">
          <mxGeometry x="400" y="460" width="10" height="10" as="geometry" />
        </mxCell>
        <mxCell id="ipPPC84IU5ozWKEs6-VU-13" value="" style="rounded=0;whiteSpace=wrap;html=1;fontSize=16;verticalAlign=middle;" vertex="1" parent="ipPPC84IU5ozWKEs6-VU-1">
          <mxGeometry x="330" y="435" width="20" height="20" as="geometry" />
        </mxCell>
        <mxCell id="ipPPC84IU5ozWKEs6-VU-18" value="" style="rounded=0;orthogonalLoop=1;jettySize=auto;html=1;endArrow=none;endFill=0;fontSize=16;entryX=1;entryY=0;entryDx=0;entryDy=0;" edge="1" target="ipPPC84IU5ozWKEs6-VU-13" parent="ipPPC84IU5ozWKEs6-VU-1" source="ipPPC84IU5ozWKEs6-VU-20">
          <mxGeometry relative="1" as="geometry">
            <mxPoint x="350" y="415" as="targetPoint" />
            <Array as="points">
              <mxPoint x="350" y="417" />
            </Array>
          </mxGeometry>
        </mxCell>
        <mxCell id="ipPPC84IU5ozWKEs6-VU-19" value="" style="rounded=0;orthogonalLoop=1;jettySize=auto;html=1;endArrow=halfCircle;endFill=0;entryX=0.5;entryY=0.5;entryDx=0;entryDy=0;endSize=6;strokeWidth=1;fontSize=16;exitX=0.5;exitY=0.5;exitDx=0;exitDy=0;" edge="1" parent="ipPPC84IU5ozWKEs6-VU-1">
          <mxGeometry relative="1" as="geometry">
            <mxPoint x="406" y="417" as="sourcePoint" />
            <mxPoint x="406" y="417" as="targetPoint" />
            <Array as="points">
              <mxPoint x="401" y="417" />
            </Array>
          </mxGeometry>
        </mxCell>
        <mxCell id="ipPPC84IU5ozWKEs6-VU-24" style="edgeStyle=orthogonalEdgeStyle;rounded=0;orthogonalLoop=1;jettySize=auto;html=1;entryX=-0.005;entryY=0.104;entryDx=0;entryDy=0;entryPerimeter=0;fontSize=16;endArrow=none;endFill=0;exitX=0.481;exitY=-0.039;exitDx=0;exitDy=0;exitPerimeter=0;" edge="1" parent="ipPPC84IU5ozWKEs6-VU-1" source="ipPPC84IU5ozWKEs6-VU-20" target="ipPPC84IU5ozWKEs6-VU-23">
          <mxGeometry relative="1" as="geometry">
            <mxPoint x="415" y="416.99999999999994" as="sourcePoint" />
            <mxPoint x="449.26" y="434.02" as="targetPoint" />
            <Array as="points">
              <mxPoint x="449" y="417" />
            </Array>
          </mxGeometry>
        </mxCell>
        <mxCell id="ipPPC84IU5ozWKEs6-VU-20" value="" style="ellipse;whiteSpace=wrap;html=1;fontFamily=Helvetica;fontSize=12;fontColor=#000000;align=center;strokeColor=#000000;fillColor=#ffffff;points=[];aspect=fixed;resizable=0;direction=south;" vertex="1" parent="ipPPC84IU5ozWKEs6-VU-1">
          <mxGeometry x="402" y="412" width="10" height="10" as="geometry" />
        </mxCell>
        <mxCell id="ipPPC84IU5ozWKEs6-VU-23" value="" style="rounded=0;whiteSpace=wrap;html=1;fontSize=16;verticalAlign=middle;perimeterSpacing=0;strokeWidth=1;" vertex="1" parent="ipPPC84IU5ozWKEs6-VU-1">
          <mxGeometry x="449" y="430" width="20" height="20" as="geometry" />
        </mxCell>
        <mxCell id="ipPPC84IU5ozWKEs6-VU-27" value="" style="rounded=0;orthogonalLoop=1;jettySize=auto;html=1;endArrow=none;endFill=0;fontSize=16;exitX=1;exitY=1;exitDx=0;exitDy=0;" edge="1" target="ipPPC84IU5ozWKEs6-VU-29" parent="ipPPC84IU5ozWKEs6-VU-1" source="ipPPC84IU5ozWKEs6-VU-34">
          <mxGeometry relative="1" as="geometry">
            <mxPoint x="672" y="450" as="sourcePoint" />
            <Array as="points">
              <mxPoint x="670" y="465" />
            </Array>
          </mxGeometry>
        </mxCell>
        <mxCell id="ipPPC84IU5ozWKEs6-VU-28" value="" style="rounded=0;orthogonalLoop=1;jettySize=auto;html=1;endArrow=halfCircle;endFill=0;entryX=0.5;entryY=0.5;entryDx=0;entryDy=0;endSize=6;strokeWidth=1;fontSize=16;exitX=-0.026;exitY=0.892;exitDx=0;exitDy=0;exitPerimeter=0;" edge="1" target="ipPPC84IU5ozWKEs6-VU-29" parent="ipPPC84IU5ozWKEs6-VU-1">
          <mxGeometry relative="1" as="geometry">
            <mxPoint x="771.48" y="447.84000000000015" as="sourcePoint" />
            <Array as="points">
              <mxPoint x="771" y="465" />
              <mxPoint x="752" y="465" />
            </Array>
          </mxGeometry>
        </mxCell>
        <mxCell id="ipPPC84IU5ozWKEs6-VU-29" value="" style="ellipse;whiteSpace=wrap;html=1;fontFamily=Helvetica;fontSize=12;fontColor=#000000;align=center;strokeColor=#000000;fillColor=#ffffff;points=[];aspect=fixed;resizable=0;" vertex="1" parent="ipPPC84IU5ozWKEs6-VU-1">
          <mxGeometry x="722" y="460" width="10" height="10" as="geometry" />
        </mxCell>
        <mxCell id="ipPPC84IU5ozWKEs6-VU-30" value="" style="rounded=0;orthogonalLoop=1;jettySize=auto;html=1;endArrow=none;endFill=0;fontSize=16;entryX=1;entryY=0.25;entryDx=0;entryDy=0;" edge="1" source="ipPPC84IU5ozWKEs6-VU-33" parent="ipPPC84IU5ozWKEs6-VU-1" target="ipPPC84IU5ozWKEs6-VU-34">
          <mxGeometry relative="1" as="geometry">
            <mxPoint x="672" y="435" as="targetPoint" />
            <Array as="points">
              <mxPoint x="670" y="417" />
            </Array>
          </mxGeometry>
        </mxCell>
        <mxCell id="ipPPC84IU5ozWKEs6-VU-31" value="" style="rounded=0;orthogonalLoop=1;jettySize=auto;html=1;endArrow=halfCircle;endFill=0;entryX=0.5;entryY=0.5;entryDx=0;entryDy=0;endSize=6;strokeWidth=1;fontSize=16;exitX=0.5;exitY=0.5;exitDx=0;exitDy=0;" edge="1" parent="ipPPC84IU5ozWKEs6-VU-1">
          <mxGeometry relative="1" as="geometry">
            <mxPoint x="728" y="417" as="sourcePoint" />
            <mxPoint x="728" y="417" as="targetPoint" />
            <Array as="points">
              <mxPoint x="723" y="417" />
            </Array>
          </mxGeometry>
        </mxCell>
        <mxCell id="ipPPC84IU5ozWKEs6-VU-32" style="edgeStyle=orthogonalEdgeStyle;rounded=0;orthogonalLoop=1;jettySize=auto;html=1;entryX=-0.037;entryY=0.101;entryDx=0;entryDy=0;entryPerimeter=0;fontSize=16;endArrow=none;endFill=0;exitX=0.481;exitY=-0.039;exitDx=0;exitDy=0;exitPerimeter=0;" edge="1" source="ipPPC84IU5ozWKEs6-VU-33" parent="ipPPC84IU5ozWKEs6-VU-1">
          <mxGeometry relative="1" as="geometry">
            <mxPoint x="737" y="417" as="sourcePoint" />
            <mxPoint x="771.26" y="434.02" as="targetPoint" />
            <Array as="points">
              <mxPoint x="771" y="417" />
            </Array>
          </mxGeometry>
        </mxCell>
        <mxCell id="ipPPC84IU5ozWKEs6-VU-33" value="" style="ellipse;whiteSpace=wrap;html=1;fontFamily=Helvetica;fontSize=12;fontColor=#000000;align=center;strokeColor=#000000;fillColor=#ffffff;points=[];aspect=fixed;resizable=0;direction=south;" vertex="1" parent="ipPPC84IU5ozWKEs6-VU-1">
          <mxGeometry x="724" y="412" width="10" height="10" as="geometry" />
        </mxCell>
        <mxCell id="ipPPC84IU5ozWKEs6-VU-34" value="" style="rounded=0;whiteSpace=wrap;html=1;fontSize=16;strokeWidth=1;verticalAlign=middle;" vertex="1" parent="ipPPC84IU5ozWKEs6-VU-1">
          <mxGeometry x="650" y="430" width="20" height="20" as="geometry" />
        </mxCell>
        <mxCell id="ipPPC84IU5ozWKEs6-VU-36" value="" style="rounded=0;whiteSpace=wrap;html=1;fontSize=16;strokeWidth=1;verticalAlign=middle;" vertex="1" parent="ipPPC84IU5ozWKEs6-VU-1">
          <mxGeometry x="771" y="430" width="20" height="20" as="geometry" />
        </mxCell>
        <mxCell id="ipPPC84IU5ozWKEs6-VU-37" value="" style="rounded=0;whiteSpace=wrap;html=1;fontSize=16;strokeWidth=0;verticalAlign=middle;strokeColor=none;" vertex="1" parent="ipPPC84IU5ozWKEs6-VU-1">
          <mxGeometry x="788" y="424" width="10" height="30" as="geometry" />
        </mxCell>
        <mxCell id="ipPPC84IU5ozWKEs6-VU-38" value="" style="rounded=0;whiteSpace=wrap;html=1;fontSize=16;strokeWidth=0;verticalAlign=middle;strokeColor=none;" vertex="1" parent="ipPPC84IU5ozWKEs6-VU-1">
          <mxGeometry x="468" y="425" width="10" height="30" as="geometry" />
        </mxCell>
      </root>
    </mxGraphModel>
  </diagram>
  <diagram id="gU2SS_4NPXjARTgPdfV1" name="Page-5">
    <mxGraphModel dx="994" dy="738" grid="1" gridSize="10" guides="1" tooltips="1" connect="1" arrows="1" fold="1" page="1" pageScale="1" pageWidth="1100" pageHeight="850" math="0" shadow="0">
      <root>
        <mxCell id="CRUR1_SocuPy56JgC4XP-0" />
        <mxCell id="CRUR1_SocuPy56JgC4XP-1" parent="CRUR1_SocuPy56JgC4XP-0" />
        <mxCell id="xx7o1G13xngBpl_uEhlH-0" value="frame" style="shape=umlFrame;whiteSpace=wrap;html=1;fontSize=16;strokeWidth=2;verticalAlign=middle;" vertex="1" parent="CRUR1_SocuPy56JgC4XP-1">
          <mxGeometry x="175" y="990" width="750" height="410" as="geometry" />
        </mxCell>
        <mxCell id="xx7o1G13xngBpl_uEhlH-1" value=":Cliente" style="shape=umlActor;verticalLabelPosition=bottom;verticalAlign=top;html=1;fontSize=16;strokeWidth=2;" vertex="1" parent="CRUR1_SocuPy56JgC4XP-1">
          <mxGeometry x="230" y="230" width="30" height="60" as="geometry" />
        </mxCell>
        <mxCell id="xx7o1G13xngBpl_uEhlH-10" style="edgeStyle=orthogonalEdgeStyle;rounded=0;orthogonalLoop=1;jettySize=auto;html=1;fontSize=16;startArrow=none;startFill=0;endArrow=none;endFill=0;" edge="1" parent="CRUR1_SocuPy56JgC4XP-1">
          <mxGeometry relative="1" as="geometry">
            <mxPoint x="801" y="260" as="targetPoint" />
            <mxPoint x="511" y="260" as="sourcePoint" />
          </mxGeometry>
        </mxCell>
        <mxCell id="xx7o1G13xngBpl_uEhlH-2" value="" style="line;strokeWidth=1;fillColor=none;align=left;verticalAlign=middle;spacingTop=-1;spacingLeft=3;spacingRight=3;rotatable=0;labelPosition=right;points=[];portConstraint=eastwest;fontSize=16;" vertex="1" parent="CRUR1_SocuPy56JgC4XP-1">
          <mxGeometry x="280" y="256" width="230" height="8" as="geometry" />
        </mxCell>
        <mxCell id="xx7o1G13xngBpl_uEhlH-3" value="" style="shape=umlLifeline;participant=umlBoundary;perimeter=lifelinePerimeter;whiteSpace=wrap;html=1;container=1;collapsible=0;recursiveResize=0;verticalAlign=top;spacingTop=36;outlineConnect=0;fontSize=16;strokeWidth=2;" vertex="1" parent="CRUR1_SocuPy56JgC4XP-1">
          <mxGeometry x="510" y="240" width="50" height="40" as="geometry" />
        </mxCell>
        <mxCell id="xx7o1G13xngBpl_uEhlH-6" value="" style="shape=umlLifeline;participant=umlControl;perimeter=lifelinePerimeter;whiteSpace=wrap;html=1;container=1;collapsible=0;recursiveResize=0;verticalAlign=top;spacingTop=36;outlineConnect=0;fontSize=16;strokeWidth=2;" vertex="1" parent="CRUR1_SocuPy56JgC4XP-1">
          <mxGeometry x="800" y="239" width="40" height="40" as="geometry" />
        </mxCell>
        <mxCell id="xx7o1G13xngBpl_uEhlH-7" value="&lt;span style=&quot;text-align: left; background-color: rgb(248, 249, 250); font-size: 10px;&quot;&gt;2&lt;/span&gt;&lt;span style=&quot;text-align: left; background-color: rgb(248, 249, 250); font-size: 10px;&quot;&gt;:Iserir e-mail&lt;/span&gt;" style="html=1;verticalAlign=bottom;startArrow=none;startFill=0;endArrow=block;startSize=8;fontSize=10;fontStyle=0" edge="1" parent="CRUR1_SocuPy56JgC4XP-1">
          <mxGeometry x="-0.5" width="60" relative="1" as="geometry">
            <mxPoint x="300" y="208" as="sourcePoint" />
            <mxPoint x="500" y="208" as="targetPoint" />
            <mxPoint as="offset" />
          </mxGeometry>
        </mxCell>
        <mxCell id="xx7o1G13xngBpl_uEhlH-8" value="&lt;span style=&quot;text-align: left; background-color: rgb(248, 249, 250); font-size: 10px;&quot;&gt;1&lt;/span&gt;&lt;span style=&quot;text-align: left; background-color: rgb(248, 249, 250); font-size: 10px;&quot;&gt;:Inserir senha&lt;/span&gt;" style="html=1;verticalAlign=bottom;startArrow=none;startFill=0;endArrow=block;startSize=8;fontSize=10;fontStyle=0" edge="1" parent="CRUR1_SocuPy56JgC4XP-1">
          <mxGeometry x="-0.5" width="60" relative="1" as="geometry">
            <mxPoint x="300.0000000000001" y="244" as="sourcePoint" />
            <mxPoint x="500" y="244" as="targetPoint" />
            <mxPoint as="offset" />
          </mxGeometry>
        </mxCell>
        <mxCell id="xx7o1G13xngBpl_uEhlH-9" value="&lt;font style=&quot;font-size: 12px&quot;&gt;:interface_Aplicação&lt;/font&gt;" style="text;html=1;align=center;verticalAlign=middle;resizable=0;points=[];autosize=1;strokeColor=none;fontSize=16;" vertex="1" parent="CRUR1_SocuPy56JgC4XP-1">
          <mxGeometry x="482" y="285" width="120" height="30" as="geometry" />
        </mxCell>
        <mxCell id="xx7o1G13xngBpl_uEhlH-11" value="&lt;span style=&quot;font-size: 10px;&quot;&gt;2.1: Email&amp;nbsp;&lt;/span&gt;" style="html=1;verticalAlign=bottom;startArrow=none;startFill=0;endArrow=block;startSize=8;fontSize=10;" edge="1" parent="CRUR1_SocuPy56JgC4XP-1">
          <mxGeometry x="-0.68" width="60" relative="1" as="geometry">
            <mxPoint x="578" y="209" as="sourcePoint" />
            <mxPoint x="778" y="209" as="targetPoint" />
            <mxPoint as="offset" />
          </mxGeometry>
        </mxCell>
        <mxCell id="xx7o1G13xngBpl_uEhlH-12" value="&lt;span style=&quot;font-size: 10px;&quot;&gt;1.1: Senha&lt;/span&gt;" style="html=1;verticalAlign=bottom;startArrow=none;startFill=0;endArrow=block;startSize=8;fontSize=10;" edge="1" parent="CRUR1_SocuPy56JgC4XP-1">
          <mxGeometry x="-0.68" width="60" relative="1" as="geometry">
            <mxPoint x="578" y="245" as="sourcePoint" />
            <mxPoint x="778" y="245" as="targetPoint" />
            <mxPoint as="offset" />
          </mxGeometry>
        </mxCell>
        <mxCell id="xx7o1G13xngBpl_uEhlH-14" value="&lt;font style=&quot;font-size: 12px&quot;&gt;:Controlador:Aplicação&lt;/font&gt;" style="text;html=1;align=center;verticalAlign=middle;resizable=0;points=[];autosize=1;strokeColor=none;fontSize=16;" vertex="1" parent="CRUR1_SocuPy56JgC4XP-1">
          <mxGeometry x="750" y="285" width="140" height="30" as="geometry" />
        </mxCell>
        <mxCell id="xx7o1G13xngBpl_uEhlH-20" style="edgeStyle=orthogonalEdgeStyle;rounded=0;orthogonalLoop=1;jettySize=auto;html=1;entryX=0.538;entryY=1.122;entryDx=0;entryDy=0;entryPerimeter=0;fontSize=16;startArrow=none;startFill=0;endArrow=none;endFill=0;" edge="1" parent="CRUR1_SocuPy56JgC4XP-1" source="xx7o1G13xngBpl_uEhlH-17" target="xx7o1G13xngBpl_uEhlH-14">
          <mxGeometry relative="1" as="geometry" />
        </mxCell>
        <mxCell id="xx7o1G13xngBpl_uEhlH-17" value=":Conta" style="html=1;fontSize=16;strokeWidth=2;align=center;verticalAlign=middle;" vertex="1" parent="CRUR1_SocuPy56JgC4XP-1">
          <mxGeometry x="770" y="500" width="110" height="50" as="geometry" />
        </mxCell>
        <mxCell id="xx7o1G13xngBpl_uEhlH-22" value="&lt;span style=&quot;text-align: left ; background-color: rgb(248 , 249 , 250)&quot;&gt;1.4:Solicitar Senha&lt;/span&gt;" style="html=1;verticalAlign=bottom;startArrow=none;startFill=0;endArrow=block;startSize=8;fontSize=10;" edge="1" parent="CRUR1_SocuPy56JgC4XP-1">
          <mxGeometry x="-0.4815" width="60" relative="1" as="geometry">
            <mxPoint x="737.9999999999998" y="285" as="sourcePoint" />
            <mxPoint x="630" y="285" as="targetPoint" />
            <mxPoint as="offset" />
          </mxGeometry>
        </mxCell>
        <mxCell id="xx7o1G13xngBpl_uEhlH-23" value="&lt;span style=&quot;text-align: left ; background-color: rgb(248 , 249 , 250)&quot;&gt;2.4:Solicitar Email&lt;/span&gt;" style="html=1;verticalAlign=bottom;startArrow=none;startFill=0;endArrow=block;startSize=8;fontSize=10;" edge="1" parent="CRUR1_SocuPy56JgC4XP-1">
          <mxGeometry x="-0.4815" width="60" relative="1" as="geometry">
            <mxPoint x="737.9999999999998" y="313.82" as="sourcePoint" />
            <mxPoint x="630" y="313.82" as="targetPoint" />
            <mxPoint as="offset" />
          </mxGeometry>
        </mxCell>
        <mxCell id="xx7o1G13xngBpl_uEhlH-24" value="&lt;span style=&quot;text-align: left ; background-color: rgb(248 , 249 , 250)&quot;&gt;3.6:Dashboard usuário.&lt;/span&gt;" style="html=1;verticalAlign=bottom;startArrow=none;startFill=0;endArrow=block;startSize=8;fontSize=10;" edge="1" parent="CRUR1_SocuPy56JgC4XP-1">
          <mxGeometry x="-0.2963" width="60" relative="1" as="geometry">
            <mxPoint x="737.9999999999998" y="340" as="sourcePoint" />
            <mxPoint x="630" y="340" as="targetPoint" />
            <mxPoint as="offset" />
          </mxGeometry>
        </mxCell>
        <mxCell id="xx7o1G13xngBpl_uEhlH-25" value="&lt;span style=&quot;text-align: left ; background-color: rgb(248 , 249 , 250)&quot;&gt;1.2:consultar_conta(long)&lt;/span&gt;" style="html=1;verticalAlign=bottom;startArrow=none;startFill=0;endArrow=block;startSize=8;fontSize=10;" edge="1" parent="CRUR1_SocuPy56JgC4XP-1">
          <mxGeometry x="1" y="-68" width="60" relative="1" as="geometry">
            <mxPoint x="808" y="380" as="sourcePoint" />
            <mxPoint x="808" y="400" as="targetPoint" />
            <mxPoint as="offset" />
          </mxGeometry>
        </mxCell>
        <mxCell id="xx7o1G13xngBpl_uEhlH-26" value="&lt;span style=&quot;text-align: left ; background-color: rgb(248 , 249 , 250)&quot;&gt;2.2:validar_senha(int)&lt;/span&gt;" style="html=1;verticalAlign=bottom;startArrow=none;startFill=0;endArrow=block;startSize=8;fontSize=10;" edge="1" parent="CRUR1_SocuPy56JgC4XP-1">
          <mxGeometry x="1" y="-68" width="60" relative="1" as="geometry">
            <mxPoint x="808" y="411" as="sourcePoint" />
            <mxPoint x="808" y="431" as="targetPoint" />
            <mxPoint as="offset" />
          </mxGeometry>
        </mxCell>
        <mxCell id="xx7o1G13xngBpl_uEhlH-27" value="&lt;span style=&quot;text-align: left ; background-color: rgb(248 , 249 , 250)&quot;&gt;3.2:exibir_dashbord&lt;/span&gt;" style="html=1;verticalAlign=bottom;startArrow=none;startFill=0;endArrow=block;startSize=8;fontSize=10;" edge="1" parent="CRUR1_SocuPy56JgC4XP-1">
          <mxGeometry x="1" y="-68" width="60" relative="1" as="geometry">
            <mxPoint x="808" y="442" as="sourcePoint" />
            <mxPoint x="808" y="462" as="targetPoint" />
            <mxPoint as="offset" />
          </mxGeometry>
        </mxCell>
        <mxCell id="xx7o1G13xngBpl_uEhlH-28" value="&lt;span style=&quot;text-align: left ; background-color: rgb(248 , 249 , 250)&quot;&gt;1.3: verdadeiro :int&lt;/span&gt;" style="html=1;verticalAlign=bottom;startArrow=none;startFill=0;endArrow=block;startSize=8;fontSize=10;dashed=1;" edge="1" parent="CRUR1_SocuPy56JgC4XP-1">
          <mxGeometry x="1" y="54" width="60" relative="1" as="geometry">
            <mxPoint x="856" y="370" as="sourcePoint" />
            <mxPoint x="856" y="390" as="targetPoint" />
            <mxPoint as="offset" />
          </mxGeometry>
        </mxCell>
        <mxCell id="xx7o1G13xngBpl_uEhlH-29" value="&lt;span style=&quot;text-align: left ; background-color: rgb(248 , 249 , 250)&quot;&gt;2.3: verdadeiro :int&lt;/span&gt;" style="html=1;verticalAlign=bottom;startArrow=none;startFill=0;endArrow=block;startSize=8;fontSize=10;dashed=1;" edge="1" parent="CRUR1_SocuPy56JgC4XP-1">
          <mxGeometry x="1" y="54" width="60" relative="1" as="geometry">
            <mxPoint x="857" y="404" as="sourcePoint" />
            <mxPoint x="857" y="424" as="targetPoint" />
            <mxPoint as="offset" />
          </mxGeometry>
        </mxCell>
        <mxCell id="xx7o1G13xngBpl_uEhlH-30" value="&lt;span style=&quot;text-align: left ; background-color: rgb(248 , 249 , 250)&quot;&gt;3.5: Extrato :String&lt;/span&gt;" style="html=1;verticalAlign=bottom;startArrow=none;startFill=0;endArrow=block;startSize=8;fontSize=10;dashed=1;" edge="1" parent="CRUR1_SocuPy56JgC4XP-1">
          <mxGeometry x="1" y="54" width="60" relative="1" as="geometry">
            <mxPoint x="857" y="437.9999999999999" as="sourcePoint" />
            <mxPoint x="857" y="457.9999999999999" as="targetPoint" />
            <mxPoint as="offset" />
          </mxGeometry>
        </mxCell>
      </root>
    </mxGraphModel>
  </diagram>
</mxfile>
